<svg width="160" height="33" viewBox="0 0 160 33" fill="none" xmlns="http://www.w3.org/2000/svg"> <g clip-path="url(#clip0)"> <path d="M37 7H23V9.99027H28.4388V26H31.6115V9.99027H37V7Z" fill="#3C55A5"/> <path d="M54 25.9662V26H57V7H54V25.9662Z" fill="#3C55A5"/> <path d="M92.8714 11C90.9959 11 89.6017 11.7334 88.6556 13.3225C87.8589 11.8207 86.5477 11.0873 84.8216 11.0873C83.0954 11.0873 81.834 11.7683 80.9378 13.1304V11.4366H78V26H80.9378V17.6007C80.9378 16.3783 81.2199 15.4703 81.7842 14.8417C82.3485 14.213 83.0456 13.8638 83.9419 13.8638C84.7386 13.8638 85.3859 14.1607 85.8174 14.6845C86.2822 15.1735 86.5145 15.9418 86.5145 16.9197V25.9476H89.5021V17.5483C89.5021 16.326 89.7842 15.4179 90.2988 14.7893C90.8133 14.1607 91.5602 13.8638 92.4564 13.8638C93.2531 13.8638 93.9004 14.1607 94.3652 14.6845C94.8299 15.1735 95.0622 15.9418 95.0622 16.9197V25.9476H98V16.7276C98 14.9814 97.5353 13.5669 96.5892 12.5541C95.6266 11.5413 94.4149 11 92.8714 11Z" fill="#3C55A5"/> <path d="M121.802 7H119V21.6576C119 23.4435 119.443 24.6565 120.377 25.3136C121.311 25.9707 122.831 26.156 124.968 25.8696V23.2413C124.256 23.2919 123.67 23.2919 123.179 23.2919C122.689 23.2413 122.325 23.1065 122.103 22.8707C121.881 22.6348 121.739 22.2136 121.739 21.6576V14.6826H124.953H125V11.8185H121.786V7H121.802Z" fill="#3C55A5"/> <path d="M131.93 13.6533H131.881V11.2476H129V26H131.881V18.3231C131.881 16.855 132.565 15.8113 133.395 15.1745C134.226 14.5377 134.909 14.237 136 14.3432V11C134.03 11 132.663 11.8844 131.93 13.6533Z" fill="#3C55A5"/> <path d="M142 11H139V26H142V11Z" fill="#3C55A5"/> <path d="M157.805 13.1529C156.336 11.7235 154.591 11 152.5 11C150.409 11 148.646 11.7412 147.195 13.1529C145.726 14.6176 145 16.4 145 18.5C145 20.6176 145.726 22.4176 147.195 23.8471C148.664 25.2765 150.409 26 152.5 26C154.591 26 156.354 25.2588 157.805 23.8471C159.257 22.3824 160 20.6 160 18.5C159.983 16.3824 159.257 14.5647 157.805 13.1529ZM155.559 21.7294C154.729 22.5588 153.71 23 152.448 23C151.238 23 150.167 22.5588 149.338 21.7294C148.508 20.8471 148.076 19.8235 148.076 18.4824C148.076 17.1588 148.508 16.0824 149.338 15.2353C150.167 14.4059 151.187 13.9647 152.448 13.9647C153.658 13.9647 154.729 14.4059 155.559 15.2353C156.388 16.1176 156.82 17.1941 156.82 18.4824C156.82 19.8235 156.388 20.9 155.559 21.7294Z" fill="#3C55A5"/> <path d="M51 18.5618C51 16.4417 50.3515 14.6749 49.0879 13.2085C47.8242 11.742 46.1781 11 44.1663 11C42.0546 11 40.3254 11.7421 39.0119 13.1555C37.9311 14.2862 37.3325 15.6113 37.0998 17.1837C37.0499 17.5194 37 17.9258 37 18.2615C37 18.3145 37 18.3145 37 18.3675C37 18.4205 37 18.4205 37 18.4735C37 20.629 37.6983 22.4488 39.0618 23.8799C40.4252 25.311 42.2043 26 44.399 26C44.5321 26 44.7316 26 44.8646 26C44.9976 26 45.1473 25.947 45.2803 25.947C47.3919 25.7527 49.0214 24.7633 50.2019 23.0495L50.2518 22.9965C50.3017 22.9435 50.3017 22.9435 50.3515 22.8905C50.5843 22.5548 50.8171 22.1484 51 21.7597H47.9572C47.7743 22.0601 47.5416 22.3074 47.3088 22.5018C47.3088 22.5018 47.2589 22.5018 47.2589 22.5548C47.1591 22.6078 47.076 22.6961 46.9762 22.7491C46.8765 22.8021 46.8432 22.8551 46.7435 22.8551C46.6936 22.9081 46.6104 22.9081 46.5606 22.9611C46.5107 22.9611 46.4608 23.0141 46.4276 23.0141L44.8812 23.2615C44.7482 23.2615 44.5986 23.2615 44.4656 23.2615C43.3349 23.2615 42.4038 22.9611 41.6057 22.4311C40.9572 21.9364 40.4751 21.2473 40.2423 20.364C40.2257 20.258 40.209 20.2226 40.1924 20.1696C40.1591 20.0813 40.1259 19.9753 40.1093 19.8693H50.9335C51 19.3039 51 18.8622 51 18.5618ZM40.0926 17.3781C40.1093 17.3074 40.1093 17.2898 40.1259 17.2191L40.1425 17.1837C40.1924 16.9364 40.2755 16.689 40.3254 16.4947C40.5582 15.8057 40.9406 15.258 41.4561 14.8163C42.1544 14.1802 43.1021 13.8799 44.1663 13.8799C45.1473 13.8799 45.9454 14.1802 46.6437 14.7633C47.342 15.3463 47.8076 16.2297 48.057 17.3604H40.0926V17.3781Z" fill="#3C55A5"/> <path d="M74 18.5618C74 16.4417 73.3515 14.6749 72.0879 13.2085C70.8242 11.742 69.1782 11 67.1663 11C65.0546 11 63.3254 11.7421 62.0119 13.1555C60.9311 14.2862 60.3325 15.6113 60.0998 17.1837C60.0499 17.5194 60 17.9258 60 18.2615C60 18.3145 60 18.3145 60 18.3675C60 18.4205 60 18.4205 60 18.4735C60 20.629 60.6983 22.4488 62.0618 23.8799C63.4252 25.311 65.2043 26 67.3991 26C67.5321 26 67.7316 26 67.8646 26C67.9976 26 68.1473 25.947 68.2803 25.947C70.3919 25.7527 72.0214 24.7633 73.2019 23.0495L73.2518 22.9965C73.3017 22.9435 73.3017 22.9435 73.3516 22.8905C73.5843 22.5548 73.8171 22.1484 74 21.7597H70.9572C70.7743 22.0601 70.5416 22.3074 70.3088 22.5018C70.3088 22.5018 70.2589 22.5018 70.2589 22.5548C70.1591 22.6078 70.076 22.6961 69.9763 22.7491C69.8765 22.8021 69.8432 22.8551 69.7435 22.8551C69.6936 22.9081 69.6105 22.9081 69.5606 22.9611C69.5107 22.9611 69.4608 23.0141 69.4276 23.0141L67.8812 23.2615C67.7482 23.2615 67.5986 23.2615 67.4656 23.2615C66.3349 23.2615 65.4038 22.9611 64.6057 22.4311C63.9572 21.9364 63.4751 21.2473 63.2423 20.364C63.209 20.2756 63.1924 20.258 63.1758 20.1696C63.1425 20.0636 63.1259 19.9753 63.0926 19.8869H73.9169C74 19.3039 74 18.8622 74 18.5618ZM63.0428 17.3781C63.0594 17.3074 63.0594 17.2898 63.0594 17.2367L63.076 17.1837C63.1259 16.9364 63.209 16.689 63.2589 16.4947C63.4917 15.8057 63.8741 15.258 64.3895 14.8163C65.0879 14.1802 66.0356 13.8799 67.0998 13.8799C68.0808 13.8799 68.8789 14.1802 69.5772 14.7633C70.2755 15.3463 70.7411 16.2297 70.9905 17.3604H63.0428V17.3781Z" fill="#3C55A5"/> <path d="M115 18.5618C115 16.4417 114.352 14.6749 113.088 13.2085C111.824 11.742 110.178 11 108.166 11C106.055 11 104.325 11.7421 103.012 13.1555C101.931 14.2862 101.333 15.6113 101.1 17.1837C101.05 17.5194 101 17.9258 101 18.2615C101 18.3145 101 18.3145 101 18.3675C101 18.4205 101 18.4205 101 18.4735C101 20.629 101.698 22.4488 103.062 23.8799C104.425 25.311 106.204 26 108.399 26C108.532 26 108.732 26 108.865 26C108.998 26 109.147 25.947 109.28 25.947C111.392 25.7527 113.021 24.7633 114.202 23.0495L114.252 22.9965C114.302 22.9435 114.302 22.9435 114.352 22.8905C114.584 22.5548 114.817 22.1484 115 21.7597H111.941C111.758 22.0601 111.525 22.3074 111.292 22.5018C111.292 22.5018 111.242 22.5018 111.242 22.5548C111.143 22.6078 111.059 22.6961 110.96 22.7491C110.86 22.8021 110.827 22.8551 110.727 22.8551C110.677 22.9081 110.594 22.9081 110.544 22.9611C110.494 22.9611 110.444 23.0141 110.411 23.0141L108.865 23.2615C108.732 23.2615 108.582 23.2615 108.449 23.2615C107.318 23.2615 106.387 22.9611 105.589 22.4311C104.941 21.9364 104.458 21.2473 104.226 20.364C104.209 20.2933 104.192 20.2226 104.176 20.1696C104.143 20.0813 104.109 19.9753 104.093 19.8693H114.917C115 19.3039 115 18.8622 115 18.5618ZM104.093 17.3781C104.109 17.3074 104.093 17.3251 104.109 17.2721L104.126 17.1837C104.176 16.9364 104.259 16.689 104.309 16.4947C104.542 15.8057 104.924 15.258 105.439 14.8163C106.138 14.1802 107.086 13.8799 108.15 13.8799C109.131 13.8799 109.929 14.1802 110.627 14.7633C111.325 15.3463 111.791 16.2297 112.04 17.3604H104.093V17.3781Z" fill="#3C55A5"/> <path d="M16.3473 11.0684C17.6405 11.0684 18.7016 12.2566 18.7016 13.6995V23.2736C18.7016 24.7335 17.6571 25.9048 16.3473 25.9048C15.054 25.9048 13.9929 24.7165 13.9929 23.2736V13.7165C13.9929 12.2566 15.0375 11.0684 16.3473 11.0684Z" fill="#3C55A5"/> <path d="M9.35118 6.67188C10.6444 6.67188 11.7055 7.79225 11.7055 9.15027V23.4265C11.7055 24.8015 10.661 25.9049 9.35118 25.9049C8.05794 25.9049 6.99683 24.7845 6.99683 23.4265V9.16725C6.99683 7.79225 8.05794 6.67188 9.35118 6.67188Z" fill="#2CA5E0"/> <path d="M2.35436 16.0254C3.64759 16.0254 4.70871 17.2137 4.70871 18.6566V23.2738C4.70871 24.7337 3.66417 25.905 2.35436 25.905C1.06112 25.905 0 24.7167 0 23.2738V18.6566C0.01658 17.2137 1.06112 16.0254 2.35436 16.0254Z" fill="#FAB83E"/> </g> <defs> <clipPath id="clip0"> <rect width="160" height="32.5926" fill="white"/> </clipPath> </defs> </svg> 