<svg width="154" height="28" viewBox="0 0 154 28" fill="none" xmlns="http://www.w3.org/2000/svg"> <g clip-path="url(#clip0)"> <path d="M46.0511 5.80371H33.8584V8.39954H38.5951V22.2975H41.3582V8.39954H46.0511V5.80371Z" fill="white"/> <path d="M60.875 22.2688V22.298H63.4773V5.9209H60.875V22.2688Z" fill="white"/> <path d="M94.647 9.81445C92.995 9.81445 91.7669 10.427 90.9336 11.754C90.2319 10.4999 89.0769 9.88737 87.5565 9.88737C86.0361 9.88737 84.925 10.4561 84.1355 11.5936V10.179H81.5479V22.3415H84.1355V15.327C84.1355 14.3061 84.384 13.5478 84.8811 13.0228C85.3782 12.4978 85.9922 12.2061 86.7816 12.2061C87.4834 12.2061 88.0535 12.454 88.4337 12.8915C88.843 13.2999 89.0477 13.9415 89.0477 14.7582V22.2978H91.6792V15.2832C91.6792 14.2624 91.9277 13.504 92.3809 12.979C92.8341 12.454 93.492 12.2061 94.2815 12.2061C94.9832 12.2061 95.5534 12.454 95.9627 12.8915C96.3721 13.2999 96.5767 13.9415 96.5767 14.7582V22.2978H99.1644V14.5978C99.1644 13.1395 98.755 11.9582 97.9217 11.1124C97.0738 10.2665 96.0066 9.81445 94.647 9.81445Z" fill="white"/> <path d="M119.807 5.9209H117.22V18.6084C117.22 20.1542 117.629 21.2042 118.492 21.773C119.354 22.3417 120.758 22.5022 122.731 22.2542V19.9792C122.073 20.023 121.532 20.023 121.079 20.023C120.626 19.9792 120.29 19.8626 120.085 19.6584C119.88 19.4542 119.749 19.0896 119.749 18.6084V12.5709H122.717H122.761V10.0917H119.793V5.9209H119.807Z" fill="white"/> <path d="M128.345 12.0898H128.302V10.1065H125.714V22.269H128.302V15.9398C128.302 14.7294 128.916 13.869 129.661 13.344C130.407 12.819 131.021 12.5711 132 12.6586V9.90234C130.231 9.90234 129.003 10.6315 128.345 12.0898Z" fill="white"/> <path d="M137.555 9.90234H134.968V22.269H137.555V9.90234Z" fill="white"/> <path d="M151.283 11.5643C150.041 10.3831 148.564 9.78516 146.795 9.78516C145.026 9.78516 143.535 10.3977 142.307 11.5643C141.064 12.7747 140.45 14.2477 140.45 15.9831C140.45 17.7331 141.064 19.2206 142.307 20.4018C143.55 21.5831 145.026 22.181 146.795 22.181C148.564 22.181 150.055 21.5685 151.283 20.4018C152.511 19.1914 153.14 17.7185 153.14 15.9831C153.125 14.2331 152.511 12.731 151.283 11.5643ZM149.383 18.6518C148.681 19.3372 147.818 19.7018 146.751 19.7018C145.728 19.7018 144.821 19.3372 144.12 18.6518C143.418 17.9227 143.052 17.0768 143.052 15.9685C143.052 14.8747 143.418 13.9852 144.12 13.2852C144.821 12.5997 145.684 12.2352 146.751 12.2352C147.775 12.2352 148.681 12.5997 149.383 13.2852C150.084 14.0143 150.45 14.9039 150.45 15.9685C150.45 17.0768 150.084 17.9664 149.383 18.6518Z" fill="white"/> <path d="M57.9952 16.1001C57.9952 14.3501 57.425 12.8917 56.3139 11.6813C55.2029 10.4709 53.7555 9.8584 51.9866 9.8584C50.1299 9.8584 48.6095 10.4709 47.4545 11.6376C46.5042 12.5709 45.9779 13.6646 45.7733 14.9626C45.7294 15.2397 45.6855 15.5751 45.6855 15.8522C45.6855 15.8959 45.6855 15.8959 45.6855 15.9397C45.6855 15.9834 45.6855 15.9834 45.6855 16.0272C45.6855 17.8063 46.2996 19.3084 47.4984 20.4897C48.6972 21.6709 50.2615 22.2397 52.1912 22.2397C52.3082 22.2397 52.4836 22.2397 52.6006 22.2397C52.7175 22.2397 52.8491 22.1959 52.9661 22.1959C54.8228 22.0355 56.2555 21.2188 57.2935 19.8042L57.3373 19.7605C57.3812 19.7167 57.3812 19.7167 57.425 19.673C57.6297 19.3959 57.8344 19.0605 57.9952 18.7397H55.3198C55.159 18.9876 54.9543 19.1917 54.7497 19.3522C54.7497 19.3522 54.7058 19.3522 54.7058 19.3959C54.6181 19.4397 54.545 19.5126 54.4573 19.5563C54.3695 19.6001 54.3403 19.6438 54.2526 19.6438C54.2087 19.6876 54.1356 19.6876 54.0918 19.7313C54.0479 19.7313 54.0041 19.7751 53.9748 19.7751L52.6152 19.9792C52.4982 19.9792 52.3667 19.9792 52.2497 19.9792C51.2556 19.9792 50.4369 19.7313 49.7352 19.2938C49.165 18.8855 48.741 18.3167 48.5364 17.5876C48.5217 17.5001 48.5071 17.4709 48.4925 17.4272C48.4633 17.3542 48.434 17.2667 48.4194 17.1792H57.9367C57.9952 16.7126 57.9952 16.348 57.9952 16.1001ZM48.4048 15.123C48.4194 15.0647 48.4194 15.0501 48.434 14.9917L48.4486 14.9626C48.4925 14.7584 48.5656 14.5542 48.6095 14.3938C48.8141 13.8251 49.1504 13.373 49.6036 13.0084C50.2176 12.4834 51.0509 12.2355 51.9866 12.2355C52.8491 12.2355 53.5509 12.4834 54.1649 12.9647C54.7789 13.4459 55.1882 14.1751 55.4075 15.1084H48.4048V15.123Z" fill="white"/> <path d="M78.6681 16.1001C78.6681 14.3501 78.0979 12.8917 76.9868 11.6813C75.8757 10.4709 74.4284 9.8584 72.6594 9.8584C70.8027 9.8584 69.2823 10.4709 68.1274 11.6376C67.1771 12.5709 66.6508 13.6646 66.4461 14.9626C66.4023 15.2397 66.3584 15.5751 66.3584 15.8522C66.3584 15.8959 66.3584 15.8959 66.3584 15.9397C66.3584 15.9834 66.3584 15.9834 66.3584 16.0272C66.3584 17.8063 66.9724 19.3084 68.1712 20.4897C69.37 21.6709 70.9343 22.2397 72.8641 22.2397C72.9811 22.2397 73.1565 22.2397 73.2735 22.2397C73.3904 22.2397 73.522 22.1959 73.6389 22.1959C75.4956 22.0355 76.9283 21.2188 77.9663 19.8042L78.0102 19.7605C78.054 19.7167 78.0541 19.7167 78.0979 19.673C78.3026 19.3959 78.5073 19.0605 78.6681 18.7397H75.9927C75.8319 18.9876 75.6272 19.1917 75.4225 19.3522C75.4225 19.3522 75.3787 19.3522 75.3787 19.3959C75.2909 19.4397 75.2179 19.5126 75.1301 19.5563C75.0424 19.6001 75.0132 19.6438 74.9255 19.6438C74.8816 19.6876 74.8085 19.6876 74.7646 19.7313C74.7208 19.7313 74.6769 19.7751 74.6477 19.7751L73.2881 19.9792C73.1711 19.9792 73.0395 19.9792 72.9226 19.9792C71.9285 19.9792 71.1098 19.7313 70.408 19.2938C69.8379 18.8855 69.4139 18.3167 69.2092 17.5876C69.18 17.5147 69.1654 17.5001 69.1507 17.4272C69.1215 17.3397 69.1069 17.2667 69.0776 17.1938H78.595C78.6681 16.7126 78.6681 16.348 78.6681 16.1001ZM69.0338 15.123C69.0484 15.0647 69.0484 15.0501 69.0484 15.0063L69.063 14.9626C69.1069 14.7584 69.18 14.5542 69.2238 14.3938C69.4285 13.8251 69.7648 13.373 70.218 13.0084C70.832 12.4834 71.6653 12.2355 72.601 12.2355C73.4635 12.2355 74.1652 12.4834 74.7793 12.9647C75.3933 13.4459 75.8026 14.1751 76.0219 15.1084H69.0338V15.123Z" fill="white"/> <path d="M114.384 16.1001C114.384 14.3501 113.814 12.8917 112.703 11.6813C111.592 10.4709 110.144 9.8584 108.375 9.8584C106.519 9.8584 104.998 10.4709 103.843 11.6376C102.893 12.5709 102.367 13.6646 102.162 14.9626C102.118 15.2397 102.074 15.5751 102.074 15.8522C102.074 15.8959 102.074 15.8959 102.074 15.9397C102.074 15.9834 102.074 15.9834 102.074 16.0272C102.074 17.8063 102.688 19.3084 103.887 20.4897C105.086 21.6709 106.65 22.2397 108.58 22.2397C108.697 22.2397 108.872 22.2397 108.989 22.2397C109.106 22.2397 109.238 22.1959 109.355 22.1959C111.211 22.0355 112.644 21.2188 113.682 19.8042L113.726 19.7605C113.77 19.7167 113.77 19.7167 113.814 19.673C114.018 19.3959 114.223 19.0605 114.384 18.7397H111.694C111.533 18.9876 111.328 19.1917 111.124 19.3522C111.124 19.3522 111.08 19.3522 111.08 19.3959C110.992 19.4397 110.919 19.5126 110.831 19.5563C110.744 19.6001 110.714 19.6438 110.627 19.6438C110.583 19.6876 110.51 19.6876 110.466 19.7313C110.422 19.7313 110.378 19.7751 110.349 19.7751L108.989 19.9792C108.872 19.9792 108.741 19.9792 108.624 19.9792C107.63 19.9792 106.811 19.7313 106.109 19.2938C105.539 18.8855 105.115 18.3167 104.91 17.5876C104.896 17.5292 104.881 17.4709 104.867 17.4272C104.837 17.3542 104.808 17.2667 104.793 17.1792H114.311C114.384 16.7126 114.384 16.348 114.384 16.1001ZM104.793 15.123C104.808 15.0647 104.793 15.0792 104.808 15.0355L104.823 14.9626C104.867 14.7584 104.94 14.5542 104.983 14.3938C105.188 13.8251 105.524 13.373 105.978 13.0084C106.592 12.4834 107.425 12.2355 108.361 12.2355C109.223 12.2355 109.925 12.4834 110.539 12.9647C111.153 13.4459 111.562 14.1751 111.782 15.1084H104.793V15.123Z" fill="white"/> <path d="M2.48532 0H25.5842C26.9584 0 28.0695 1.10833 28.0695 2.47917V25.5208C28.0695 26.8917 26.9584 28 25.5842 28H2.48532C1.11108 28 0 26.8917 0 25.5208V2.47917C0 1.10833 1.11108 0 2.48532 0Z" fill="white"/> <path d="M20.2039 9.50879C21.3442 9.50879 22.2799 10.5296 22.2799 11.7692V19.9942C22.2799 21.2484 21.3588 22.2546 20.2039 22.2546C19.0636 22.2546 18.1279 21.2338 18.1279 19.9942V11.7838C18.1279 10.5296 19.049 9.50879 20.2039 9.50879Z" fill="#3C55A5"/> <path d="M14.034 5.73145C15.1743 5.73145 16.11 6.69395 16.11 7.86061V20.1252C16.11 21.3064 15.1889 22.2544 14.034 22.2544C12.8937 22.2544 11.958 21.2919 11.958 20.1252V7.8752C11.958 6.69395 12.8937 5.73145 14.034 5.73145Z" fill="#2CA5E0"/> <path d="M7.86504 13.7666C9.00536 13.7666 9.94101 14.7874 9.94101 16.027V19.9937C9.94101 21.2478 9.01998 22.2541 7.86504 22.2541C6.72471 22.2541 5.78906 21.2333 5.78906 19.9937V16.027C5.80368 14.7874 6.72471 13.7666 7.86504 13.7666Z" fill="#FAB83E"/> <path d="M1.71059 18.1416H1.53516V18.1708H1.71059V18.1416Z" fill="white"/> </g> <defs> <clipPath id="clip0"> <rect width="153.125" height="28" fill="white"/> </clipPath> </defs> </svg> 